<?xml version="1.0" encoding="UTF-8" standalone="no"?><!DOCTYPE svg PUBLIC "-//W3C//DTD SVG 1.1//EN" "http://www.w3.org/Graphics/SVG/1.1/DTD/svg11.dtd"><svg width="100%" height="100%" viewBox="0 0 60 77" version="1.1" xmlns="http://www.w3.org/2000/svg" xmlns:xlink="http://www.w3.org/1999/xlink" xml:space="preserve" xmlns:serif="http://www.serif.com/" style="fill-rule:evenodd;clip-rule:evenodd;stroke-linecap:round;stroke-linejoin:round;stroke-miterlimit:1.5;"><g id="图层1"><path d="M49.567,53.5c0,0 7.829,-11.852 3.585,-19.956c-4.243,-8.104 -13.179,-15.213 -23.941,-14.041c0,0 -4.958,-11.963 -8.489,-14.057c-3.531,-2.093 -3.763,2.037 -3.799,1.611c-0.035,-0.416 -2.048,5.552 4.972,14.336c0,0 -12.966,10.557 -15.113,19.08c-2.146,8.524 -1.485,17.529 3.273,22.126c3.202,3.094 15.111,9.639 26.64,1.199" style="fill:none;stroke:#000;stroke-width:2px;"/></g><g id="图层2"><path d="M15.998,26.764c0,0 -7.07,-7.933 -7.991,-8.619c-0.922,-0.685 -4.934,0.077 -3.062,3.462c1.871,3.385 5.863,9.245 5.948,9.315" style="fill:none;stroke:#000;stroke-width:2px;"/></g><g id="图层3"><path d="M20.038,42.066l-7.858,6.894" style="fill:none;stroke:#000;stroke-width:2px;"/><path d="M34.834,27.927l-5.881,6.604l-2.409,-1.304" style="fill:none;stroke:#000;stroke-width:2px;"/><path d="M39.011,47.705l-8.37,7.092" style="fill:none;stroke:#000;stroke-width:2px;"/><path d="M50.996,64.974c0,0 0.311,8.452 0.531,11.168c0.22,2.715 -1.994,3.188 -1.994,3.188" style="fill:none;stroke:#000;stroke-width:2px;"/><path d="M37.866,68.612l-0.257,9.683" style="fill:none;stroke:#000;stroke-width:2px;"/><path d="M33.651,66.001l-0.397,11.843" style="fill:none;stroke:#000;stroke-width:2px;"/><path d="M49.623,53.942c0,0 4.617,7.173 5.256,9.653c0.64,2.48 -0.229,13.754 -0.229,13.754" style="fill:none;stroke:#000;stroke-width:2px;"/></g><g id="图层4"><ellipse cx="34.558" cy="34.133" rx="0.997" ry="1.018"/><ellipse cx="18.492" cy="49.741" rx="1.286" ry="1.181"/></g></svg>
